<svg role="img" viewBox="0 0 24 24" xmlns="http://www.w3.org/2000/svg" width="40" height="40" fill="white"><title>Airbnb</title><path d="M12.003 0c-1.164 0-2.094.406-2.7 1.17A2.76 2.76 0 0 0 8.76 2.94c0 .54.228 1.104.468 1.632.288.606.648 1.218 1.014 1.788.372.576.738 1.134 1.02 1.578.18.294.318.516.402.666h.678c.084-.15.222-.372.402-.666.282-.444.648-1.002 1.02-1.578.366-.57.726-1.182 1.014-1.788.24-.528.468-1.092.468-1.632a2.76 2.76 0 0 0-.543-1.77C14.097.406 13.167 0 12.003 0zm0 4.47a1.48 1.48 0 1 1 1.48-1.48 1.48 1.48 0 0 1-1.48 1.48zm-6.57 5.64c-.72 0-1.32.21-1.77.63C3.12 11.16 3 11.7 3 12.03c0 .6.228 1.218.684 1.872.414.588.984 1.182 1.626 1.734.636.546 1.32 1.05 1.944 1.458.36.234.672.42.93.57.24-.15.546-.348.888-.576a20.352 20.352 0 0 0 1.992-1.494c.63-.564 1.188-1.17 1.578-1.758.42-.636.642-1.254.642-1.812 0-.33-.12-.87-.663-1.293-.45-.42-1.05-.63-1.77-.63-.798 0-1.422.306-1.872.912-.444-.6-1.074-.912-1.866-.912zm13.14 0c-.792 0-1.422.312-1.872.912-.45-.606-1.074-.912-1.872-.912-.72 0-1.32.21-1.77.63-.543.423-.663.963-.663 1.293 0 .558.222 1.176.642 1.812.39.588.948 1.194 1.578 1.758a20.352 20.352 0 0 0 1.992 1.494c.342.228.648.426.888.576.258-.15.57-.336.93-.57.624-.408 1.308-.912 1.944-1.458.642-.552 1.212-1.146 1.626-1.734.456-.654.684-1.272.684-1.872 0-.33-.12-.87-.663-1.293-.45-.42-1.05-.63-1.77-.63zm-6.57 5.64c-.126.138-.27.288-.426.444-.48.48-1.056 1.002-1.698 1.494-.636.492-1.338.96-1.998 1.32-.42.228-.822.408-1.158.528.102.18.222.372.366.564.426.564.984 1.068 1.644 1.386.462.222.948.33 1.44.33s.978-.108 1.44-.33c.66-.318 1.218-.822 1.644-1.386.144-.192.264-.384.366-.564-.336-.12-.738-.3-1.158-.528-.66-.36-1.362-.828-1.998-1.32-.642-.492-1.218-1.014-1.698-1.494a7.644 7.644 0 0 1-.426-.444z"/></svg>