<svg role="img" viewBox="0 0 24 24" xmlns="http://www.w3.org/2000/svg" width="40" height="40" fill="white"><title>Amazon</title><path d="M.045 18.02c.072-.196.215-.29.428-.29h.996c.138 0 .24.033.305.1a.977.977 0 0 1 .18.304 18.87 18.87 0 0 0 1.07 2.218c.85 1.542 2.084 2.73 3.7 3.567 1.615.837 3.394 1.255 5.337 1.255 2.21 0 4.222-.506 6.036-1.516 1.814-1.01 3.257-2.403 4.33-4.179.072-.13.152-.19.24-.182a.272.272 0 0 1 .196.099c.058.065.079.146.062.243l-.55 3.22c-.043.26-.186.388-.43.388H2.33c-.245 0-.409-.13-.496-.388L.045 18.02zm2.29-5.045c-.072-.196-.036-.34.108-.434l.72-.527a.41.41 0 0 1 .258-.09.41.41 0 0 1 .268.099c.086.074.138.168.154.282.086.625.258 1.166.516 1.623.26.457.67.85 1.234 1.177.563.328 1.254.491 2.072.491.804 0 1.49-.154 2.06-.46.57-.308.95-.72 1.14-1.238.086-.238.13-.491.13-.759 0-.497-.154-.9-.46-1.209-.307-.308-.75-.555-1.327-.74l-2.29-.74c-.99-.316-1.77-.752-2.343-1.307-.572-.555-.858-1.2-.858-1.934 0-.79.268-1.482.804-2.074.535-.593 1.254-1.05 2.157-1.374.904-.324 1.894-.486 2.97-.486 1.12 0 2.12.172 3 .516.879.344 1.573.836 2.084 1.478.51.641.765 1.378.765 2.212h-.002c0 .179-.086.298-.258.354l-.903.3c-.115.043-.215.028-.303-.046-.087-.073-.13-.178-.13-.31-.058-.74-.372-1.346-.944-1.817-.57-.47-1.385-.706-2.443-.706-.95 0-1.726.2-2.325.597-.6.397-.9.925-.9 1.583 0 .41.14.76.422 1.05.28.29.832.55 1.656.78l2.09.636c1.133.344 1.983.83 2.548 1.457.566.628.849 1.38.849 2.254 0 .989-.27 1.846-.806 2.572-.537.725-1.28 1.29-2.225 1.692-.946.403-2.015.604-3.207.604-1.077 0-2.062-.163-2.954-.491a6.386 6.386 0 0 1-2.222-1.357 6.003 6.003 0 0 1-1.4-2.018 7.032 7.032 0 0 1-.478-1.768zm12.15 7.048c-.07-.065-.072-.137-.005-.214.573-.601 1.076-1.303 1.51-2.106.434-.803.65-1.543.65-2.22 0-.5-.129-.904-.386-1.213-.128-.159-.314-.279-.56-.36a.46.46 0 0 1-.237-.176c-.058-.089-.065-.183-.021-.284l.355-.882c.072-.187.236-.28.49-.28.56 0 1.059.22 1.495.66.435.44.653.982.653 1.625 0 .97-.292 2.007-.875 3.112-.584 1.105-1.362 2.029-2.335 2.773-.144.108-.268.12-.37.036l-.364-.47z"/></svg>