<svg xmlns="http://www.w3.org/2000/svg" width="40" height="40" viewBox="0 0 512 512">
    <defs>
        <linearGradient id="meta-grad-final" x1="0%" y1="0%" x2="100%" y2="0%">
            <stop offset="0%" style="stop-color:#0081FB" />
            <stop offset="100%" style="stop-color:#00D1FF" />
        </linearGradient>
    </defs>
    <path d="M442.22 195.99c-27.12-43.21-64.44-67.99-105-67.99-24.31 0-47 8.91-65.74 24.52-11.95 9.99-21.57 21.99-31.48 35.48-9.92-13.48-19.54-25.49-31.49-35.48C189.77 136.91 167.08 128 142.77 128c-40.56 0-77.88 24.78-105 67.99-27.91 44.42-34.92 101.91-19.11 146.42 12.33 34.63 37.52 54.11 66.83 54.11 33.47 0 60.07-23.46 89.21-59.52 12.48-15.46 24.03-31.86 33.8-48.37 9.8 16.51 21.32 32.91 33.8 48.37 29.13 36.06 55.74 59.52 89.2 59.52 29.32 0 54.51-19.48 66.84-54.11 15.82-44.51 8.81-102-19.12-146.42zm-121.93 135.4c-33.1 0-61.94-38.31-95.27-88.63 1.74-2.61 3.44-5.18 5.12-7.8 7.31-11.19 15.35-23.51 23.3-34.1 17.56-23.75 39.06-39.11 66.9-39.11 27.18 0 51.52 15.87 69.83 45.1 17.96 28.72 22.84 67.16 11.08 99.39-5.91 16.49-17.65 25.15-30.86 25.15h-.1zm-215.09 0c-13.2 0-24.94-8.66-30.86-16.49-11.76-32.23-6.88-70.67 11.08-99.39 18.31-29.23 42.65-45.1 69.83-45.1 27.84 0 49.34 15.36 66.9 39.11 7.95 10.59 15.99 22.91 23.3 34.1 1.68 2.62 3.38 5.19 5.12 7.8-33.33 50.32-62.17 88.63-95.27 88.63h-.1z" fill="url(#meta-grad-final)" /></svg>