<svg viewBox="0 0 24 24" xmlns="http://www.w3.org/2000/svg" fill="black"><path d="M22.28 9.82a5.98 5.98 0 0 0-.51-4.91 6.04 6.04 0 0 0-6.51-2.9 6.07 6.07 0 0 0-4.28 2.17 6 6 0 0 0-3.99 2.91 6.05 6.05 0 0 0 .74 7.1 6 6 0 0 0 .51 4.91 6.05 6.05 0 0 0 6.51 2.91 5.99 5.99 0 0 0 3.99-2.91 6.05 6.05 0 0 0-.74-7.1 5.99 5.99 0 0 0 .28-.07zM13.26 22.43a4.5 4.5 0 0 1-2.88-1.04l.14-.08 4.78-2.76a.79.79 0 0 0 .39-.68v-6.74l2.02 1.17a.07.07 0 0 1 .04.05v5.58a4.5 4.5 0 0 1-4.49 4.5zM3.6 18.3a4.47 4.47 0 0 1-.53-3.01l.14.08 4.78 2.76a.77.77 0 0 0 .78 0l5.84-3.37v2.33a.08.08 0 0 1-.03.06l-4.84 2.79a4.5 4.5 0 0 1-6.14-1.64zM2.34 7.9a4.49 4.49 0 0 1 2.37-1.97v5.67a.77.77 0 0 0 .39.68l5.81 3.35-2.02 1.17a.08.08 0 0 1-.07 0L4.05 14.1a4.5 4.5 0 0 1-1.71-6.2zM18.94 11.75l-5.84-3.37 2.02-1.17a.08.08 0 0 1 .07 0l4.83 2.79a4.49 4.49 0 0 1-.68 8.1v-5.68a.79.79 0 0 0-.4-.67zM20.35 7.14a4.5 4.5 0 0 1-2.15 4.14V7.5a.78.78 0 0 0-.4-.68l-5.81-3.35 2.02-1.17a.08.08 0 0 1 .07 0l4.83 2.79a4.5 4.5 0 0 1 1.44 6.05zM9.41 2.5a4.49 4.49 0 0 1 2.37-1.97V6.2a.77.77 0 0 0-.39.68L5.58 10.23l-2.02-1.17a.08.08 0 0 1-.04-.05V3.43a4.5 4.5 0 0 1 5.89-.93zm-.31 7.21l2.6-1.5 2.61 1.5v3l-2.6 1.5-2.61-1.5v-3z" /></svg>