<svg role="img" viewBox="0 0 24 24" xmlns="http://www.w3.org/2000/svg" width="40" height="40" fill="white"><title>SpaceX</title><path d="M4.53 0A4.53 4.53 0 000 4.525v14.95A4.53 4.53 0 004.53 24h14.94A4.53 4.53 0 0024 19.475V4.525A4.53 4.53 0 0019.47 0zm2.666 4.8h9.608l-1.83 1.83H8.996l2.448 2.45-1.83 1.83-4.278-4.28zm-1.86 8.57l4.278 4.28H6.006l1.83-1.83-2.448-2.448zm13.328 1.83l-4.278 4.28H5.778l1.83-1.83h5.918l-2.448-2.448 1.83-1.83 4.278 4.278V8.708l-1.826-1.826H9.344l-1.826-1.826h6.696l4.25 4.252z"/></svg>