<svg role="img" viewBox="0 0 24 24" xmlns="http://www.w3.org/2000/svg" width="40" height="40" fill="white"><title>Tesla</title><path d="M12 5.362l2.475-3.026C13.364 2.18 11.636 2.18 9.525 2.336L12 5.362zM12 5.362L9.525 2.336C7.473 2.5 5.518 2.978 3.84 3.8l1.572 1.92C7.02 5.157 9.375 4.977 12 5.362zM12 5.362l2.475-3.026c2.052.164 4.007.642 5.685 1.464l-1.572 1.92C16.98 5.157 14.625 4.977 12 5.362zM0 3.6C2.04 2.28 5.04 1.32 8.28 1.08L9 2.04C5.7 2.4 2.88 3.48.96 5.04L0 3.6zm24 0C21.96 2.28 18.96 1.32 15.72 1.08L15 2.04C18.3 2.4 21.12 3.48 23.04 5.04L24 3.6zM12 7.08L12 23.16l-1.98-2.16V8.4L12 7.08zm0 0l1.98 1.32v12.6L12 23.16V7.08z"/></svg>